<svg width="63" height="63" viewBox="0 0 63 63" fill="none" xmlns="http://www.w3.org/2000/svg">
<circle cx="31.5" cy="31.5" r="31.5" fill="#B92F1C"/>
<path d="M41.6541 36.6715V39.6138C41.6552 39.887 41.5992 40.1574 41.4898 40.4076C41.3804 40.6579 41.2199 40.8826 41.0186 41.0672C40.8174 41.2519 40.5797 41.3924 40.321 41.48C40.0622 41.5675 39.7881 41.6 39.516 41.5754C36.498 41.2474 33.599 40.2162 31.052 38.5644C28.6823 37.0586 26.6732 35.0495 25.1674 32.6798C23.5098 30.1212 22.4783 27.2081 22.1564 24.1765C22.1319 23.9053 22.1641 23.632 22.251 23.3739C22.338 23.1158 22.4777 22.8787 22.6613 22.6775C22.8449 22.4764 23.0683 22.3157 23.3174 22.2057C23.5665 22.0957 23.8358 22.0387 24.1081 22.0385H27.0504C27.5264 22.0338 27.9878 22.2023 28.3487 22.5127C28.7096 22.8231 28.9454 23.2541 29.012 23.7254C29.1362 24.667 29.3665 25.5915 29.6985 26.4813C29.8305 26.8324 29.859 27.2139 29.7808 27.5807C29.7026 27.9474 29.5209 28.2841 29.2572 28.5508L28.0116 29.7963C29.4078 32.2517 31.4408 34.2848 33.8962 35.681L35.1418 34.4354C35.4084 34.1717 35.7451 33.99 36.1119 33.9117C36.4787 33.8335 36.8602 33.8621 37.2112 33.994C38.101 34.3261 39.0256 34.5564 39.9672 34.6806C40.4436 34.7478 40.8787 34.9878 41.1897 35.3548C41.5008 35.7219 41.666 36.1905 41.6541 36.6715Z" stroke="#F8F8F8" stroke-width="2" stroke-linecap="round" stroke-linejoin="round"/>
</svg>
