<svg width="56" height="56" viewBox="0 0 56 56" fill="none" xmlns="http://www.w3.org/2000/svg">
<circle cx="28" cy="28" r="28" fill="#B92F1C"/>
<path d="M28.3073 28.9231C28.6471 28.9231 28.9227 28.6476 28.9227 28.3077C28.9227 27.9678 28.6471 27.6923 28.3073 27.6923C27.9674 27.6923 27.6919 27.9678 27.6919 28.3077C27.6919 28.6476 27.9674 28.9231 28.3073 28.9231Z" stroke="#F8F8F8" stroke-width="2" stroke-linecap="round" stroke-linejoin="round"/>
<path d="M32.6154 28.9231C32.9553 28.9231 33.2308 28.6476 33.2308 28.3077C33.2308 27.9678 32.9553 27.6923 32.6154 27.6923C32.2755 27.6923 32 27.9678 32 28.3077C32 28.6476 32.2755 28.9231 32.6154 28.9231Z" stroke="#F8F8F8" stroke-width="2" stroke-linecap="round" stroke-linejoin="round"/>
<path d="M23.9997 28.9231C24.3395 28.9231 24.615 28.6476 24.615 28.3077C24.615 27.9678 24.3395 27.6923 23.9997 27.6923C23.6598 27.6923 23.3843 27.9678 23.3843 28.3077C23.3843 28.6476 23.6598 28.9231 23.9997 28.9231Z" stroke="#F8F8F8" stroke-width="2" stroke-linecap="round" stroke-linejoin="round"/>
</svg>
